<svg width="50" height="50" xmlns="http://www.w3.org/2000/svg">
 <g>
  <title>background</title>
  <rect x="-1" y="-1" width="52" height="52" id="canvas_background" fill="none"/>
 </g>

 <g>
  <title>Layer 1</title>
  <g stroke="null" id="svg_1">
   <g stroke="null" id="svg_2">
    <g stroke="null" id="svg_3">
     <path stroke="null" d="m18.866535,39.22139c-0.344405,0.06157 -0.494857,0.216691 -0.451709,0.464058c0.042922,0.247474 0.236417,0.330181 0.580364,0.247474c0.344405,-0.082386 0.494747,-0.227097 0.451483,-0.433271c-0.042696,-0.22677 -0.236191,-0.319776 -0.580138,-0.278261z" fill="#e0a80d" id="svg_4"/>
     <path stroke="null" d="m17.028182,39.469191c-0.344063,0 -0.515981,0.112842 -0.515981,0.340265c0,0.268178 0.182873,0.381346 0.548175,0.340158c0.344063,0 0.516203,-0.113495 0.516203,-0.340158c0,-0.267856 -0.182873,-0.38178 -0.548397,-0.340265z" fill="#e0a80d" id="svg_5"/>
     <path stroke="null" d="m14.512773,39.375644c-0.085849,0.227092 0.053992,0.381453 0.419179,0.46438c0.322487,0.123252 0.526825,0.06157 0.612669,-0.185797c0.064614,-0.226663 -0.075226,-0.391317 -0.419179,-0.495167c-0.322597,-0.082274 -0.526709,-0.011054 -0.612669,0.216584z" fill="#e0a80d" id="svg_6"/>
     <path stroke="null" d="m47.809948,3.614912c-1.816776,-1.743166 -4.003822,-2.614912 -6.562831,-2.614912l-30.95934,0c-2.558215,0 -4.746055,0.871746 -6.562947,2.614912c-1.816439,1.743488 -2.72483,3.84307 -2.72483,6.298202l0,29.710871c0,2.455239 0.908391,4.554602 2.72483,6.297768c1.816781,1.743488 4.004732,2.615234 6.562947,2.615234l7.223856,0c0.472607,0 0.827624,-0.015611 1.064041,-0.045964c0.236301,-0.031216 0.472607,-0.165415 0.70925,-0.402917c0.236754,-0.237068 0.35468,-0.582753 0.35468,-1.036513c0,-0.06157 -0.005651,-0.763778 -0.016268,-2.104783c-0.010954,-1.341438 -0.016263,-2.403855 -0.016263,-3.188015l-0.741781,0.1239c-0.472944,0.082386 -1.069576,0.118695 -1.789896,0.10829c-0.719978,-0.010405 -1.467294,-0.082381 -2.241153,-0.216579c-0.774312,-0.134306 -1.49429,-0.443676 -2.160844,-0.928111c-0.666208,-0.485303 -1.139157,-1.119547 -1.418722,-1.90338l-0.322602,-0.712292c-0.214951,-0.47403 -0.553368,-1.000413 -1.015695,-1.577639c-0.462327,-0.577982 -0.929851,-0.970059 -1.402796,-1.176345l-0.225799,-0.154795c-0.150342,-0.103084 -0.290071,-0.227418 -0.419179,-0.371701c-0.128881,-0.144711 -0.225573,-0.289315 -0.290071,-0.433271c-0.064493,-0.144711 -0.010954,-0.263406 0.16119,-0.356524c0.172145,-0.092679 0.483561,-0.138643 0.935271,-0.138643l0.644752,0.092684c0.430133,0.082381 0.96193,0.329747 1.596517,0.742641c0.634129,0.412567 1.15542,0.948927 1.563981,1.608968c0.494747,0.846164 1.090816,1.490487 1.789896,1.934163c0.698517,0.44411 1.402796,0.665894 2.112156,0.665894s1.322034,-0.051598 1.838242,-0.154361c0.515645,-0.103411 0.999432,-0.258532 1.451142,-0.464813c0.193495,-1.382197 0.72032,-2.445374 1.580023,-3.188015c-1.225342,-0.1239 -2.327112,-0.30937 -3.305646,-0.557171c-0.977971,-0.2478 -1.988584,-0.64985 -3.031164,-1.207133c-1.043033,-0.557171 -1.908275,-1.247887 -2.596286,-2.073674c-0.6879,-0.825782 -1.252454,-1.908907 -1.692867,-3.249585c-0.44064,-1.341438 -0.661015,-2.88905 -0.661015,-4.642622c0,-2.49632 0.849538,-4.621811 2.54794,-6.375378c-0.795662,-1.877472 -0.720546,-3.981714 0.225573,-6.313379c0.623512,-0.185797 1.548171,-0.046393 2.773513,0.417879c1.225568,0.464599 2.122889,0.861882 2.692862,1.191522c0.569973,0.329747 1.026654,0.60855 1.370717,0.835754c1.99988,-0.536462 4.06369,-0.804645 6.192004,-0.804645c2.128193,0 4.192345,0.268178 6.192341,0.804645l1.225453,-0.742748c0.83881,-0.495382 1.827625,-0.949248 2.967234,-1.361708c1.139499,-0.412567 2.010045,-0.526169 2.612327,-0.340372c0.967123,2.33166 1.05365,4.435902 0.257425,6.313267c1.698397,1.753786 2.548166,3.879165 2.548166,6.37549c0,1.753893 -0.22038,3.30671 -0.66102,4.657799c-0.440298,1.35141 -1.009708,2.434964 -1.709019,3.249907c-0.698517,0.815055 -1.569405,1.500571 -2.611986,2.058068c-1.042806,0.556844 -2.053308,0.959654 -3.031727,1.206694c-0.978308,0.2478 -2.079967,0.434031 -3.30542,0.557931c1.117243,0.928111 1.676147,2.392582 1.676147,4.39428l0,7.396933c0,0.35089 0.053313,0.634351 0.160849,0.851043c0.108209,0.216579 0.279902,0.365735 0.516318,0.448876c0.237432,0.082386 0.446064,0.133877 0.629278,0.154361c0.183214,0.020704 0.446059,0.031114 0.790122,0.031114l7.223856,0c2.55822,0 4.746171,-0.871746 6.562158,-2.615239c1.816776,-1.743488 2.725167,-3.843178 2.725167,-6.298197l0,-29.709468c-0.000226,-2.455127 -0.908617,-4.555031 -2.725056,-6.298197z" fill="#e0a80d" id="svg_7"/>
     <path stroke="null" d="m10.803758,35.600431c-0.150342,0.102763 -0.128881,0.267851 0.064614,0.494841c0.215293,0.206174 0.387095,0.237283 0.516208,0.092679c0.150342,-0.102758 0.128881,-0.267851 -0.064951,-0.495274c-0.21484,-0.185363 -0.386759,-0.216472 -0.515871,-0.092245z" fill="#e0a80d" id="svg_8"/>
     <path stroke="null" d="m9.739833,34.826676c-0.064388,0.144716 0.010844,0.268616 0.225794,0.371379c0.171808,0.103518 0.311985,0.083141 0.419179,-0.061575c0.064388,-0.144711 -0.010844,-0.268611 -0.225794,-0.37213c-0.214956,-0.062009 -0.354685,-0.041193 -0.419179,0.062325z" fill="#e0a80d" id="svg_9"/>
     <path stroke="null" d="m11.803759,36.807564c-0.193721,0.102758 -0.193721,0.288988 0,0.556844c0.19349,0.268611 0.375915,0.340587 0.54817,0.216579c0.193606,-0.144604 0.193606,-0.340587 0,-0.58828c-0.171803,-0.267529 -0.35468,-0.330186 -0.54817,-0.185144z" fill="#e0a80d" id="svg_10"/>
     <path stroke="null" d="m12.93275,38.199733c-0.193611,0.165415 -0.15091,0.360642 0.128992,0.588387c0.257651,0.24704 0.472723,0.278154 0.644752,0.092031c0.172145,-0.164659 0.129107,-0.360535 -0.128997,-0.587524c-0.257651,-0.247147 -0.472718,-0.278369 -0.644747,-0.092893z" fill="#e0a80d" id="svg_11"/>
    </g>
   </g>
   <g stroke="null" id="svg_12"/>
   <g stroke="null" id="svg_13"/>
   <g stroke="null" id="svg_14"/>
   <g stroke="null" id="svg_15"/>
   <g stroke="null" id="svg_16"/>
   <g stroke="null" id="svg_17"/>
   <g stroke="null" id="svg_18"/>
   <g stroke="null" id="svg_19"/>
   <g stroke="null" id="svg_20"/>
   <g stroke="null" id="svg_21"/>
   <g stroke="null" id="svg_22"/>
   <g stroke="null" id="svg_23"/>
   <g stroke="null" id="svg_24"/>
   <g stroke="null" id="svg_25"/>
   <g stroke="null" id="svg_26"/>
  </g>
 </g>
</svg>